<svg xmlns="http://www.w3.org/2000/svg" xmlns:xlink="http://www.w3.org/1999/xlink" width="180.2" height="32" viewBox="0 0 180.2 32">
  <defs>
    <linearGradient id="linear-gradient" x1="0.5" x2="0.5" y2="1" gradientUnits="objectBoundingBox">
      <stop offset="0" stop-color="#ff973e"/>
      <stop offset="1" stop-color="#ff6565"/>
    </linearGradient>
  </defs>
  <g id="logo" transform="translate(1303 174.534)">
    <path id="Path_99" data-name="Path 99" d="M.48,0,5.76-17.28h4.872L15.912,0h-3.36l-4.7-15.24h.624L3.84,0ZM3.648-3.6V-6.648h9.12V-3.6ZM19.9,0l-4.7-12.96h3.264l3.072,8.976L24.6-12.96h3.264L23.16,0Zm9.648-14.76v-2.88h3.264v2.88Zm0,14.76V-12.96h3.264V0ZM40.752.36A6.505,6.505,0,0,1,36.8-.75a4.63,4.63,0,0,1-1.83-3.138l3.336-.5a2.339,2.339,0,0,0,.906,1.428,2.93,2.93,0,0,0,1.782.516A2.335,2.335,0,0,0,42.36-2.79a1.105,1.105,0,0,0,.48-.954.944.944,0,0,0-.192-.618,2,2,0,0,0-.858-.462q-.666-.228-2.07-.6a11.749,11.749,0,0,1-2.532-.912A3.387,3.387,0,0,1,35.82-7.542a3.25,3.25,0,0,1-.42-1.7,3.708,3.708,0,0,1,.636-2.166,4.077,4.077,0,0,1,1.794-1.416,6.873,6.873,0,0,1,2.73-.5,7.261,7.261,0,0,1,2.7.468,4.7,4.7,0,0,1,1.9,1.332,3.977,3.977,0,0,1,.894,2.04l-3.336.6a1.62,1.62,0,0,0-.624-1.14,2.677,2.677,0,0,0-1.464-.492,2.628,2.628,0,0,0-1.446.24.941.941,0,0,0-.546.864.756.756,0,0,0,.234.564,2.7,2.7,0,0,0,.972.468q.738.24,2.25.624a9.867,9.867,0,0,1,2.37.894,3.365,3.365,0,0,1,1.3,1.224,3.417,3.417,0,0,1,.408,1.722A3.776,3.776,0,0,1,44.736-.78,6.262,6.262,0,0,1,40.752.36ZM55.9,0l-5.28-17.28h3.36L58.3-3.072,62.688-17.28h3.36L60.768,0ZM66.888-14.76v-2.88h3.264v2.88Zm0,14.76V-12.96h3.264V0Zm11.4.36a5.5,5.5,0,0,1-3.132-.9,6.054,6.054,0,0,1-2.094-2.448,7.907,7.907,0,0,1-.75-3.492A7.848,7.848,0,0,1,73.074-10a5.966,5.966,0,0,1,2.142-2.43,5.856,5.856,0,0,1,3.24-.888,5.209,5.209,0,0,1,3.108.9,5.574,5.574,0,0,1,1.908,2.448A8.967,8.967,0,0,1,84.12-6.48a8.9,8.9,0,0,1-.654,3.492A5.518,5.518,0,0,1,81.516-.54,5.525,5.525,0,0,1,78.288.36Zm.528-2.9a2.835,2.835,0,0,0,1.746-.492,2.718,2.718,0,0,0,.942-1.38,6.7,6.7,0,0,0,.288-2.064A6.7,6.7,0,0,0,81.5-8.544a2.783,2.783,0,0,0-.918-1.38,2.6,2.6,0,0,0-1.65-.492,2.88,2.88,0,0,0-1.794.534A3.131,3.131,0,0,0,76.1-8.454a5.571,5.571,0,0,0-.336,1.974,5.794,5.794,0,0,0,.324,1.986,3.1,3.1,0,0,0,1,1.422A2.713,2.713,0,0,0,78.816-2.544ZM81.792,0V-8.88h-.408v-8.4h3.288V0ZM94.944-14.76H91.728l.912-2.88h3.216ZM93.336.36A7.011,7.011,0,0,1,89.826-.5,6.189,6.189,0,0,1,87.45-2.862a6.846,6.846,0,0,1-.858-3.45,7.731,7.731,0,0,1,.84-3.7,6.114,6.114,0,0,1,2.316-2.442,6.561,6.561,0,0,1,3.4-.87,6.072,6.072,0,0,1,3.468.96,5.639,5.639,0,0,1,2.112,2.7,8.99,8.99,0,0,1,.48,4.092H95.976v-1.2a4.965,4.965,0,0,0-.63-2.85,2.368,2.368,0,0,0-2.058-.87,2.91,2.91,0,0,0-2.454,1.014,4.827,4.827,0,0,0-.786,2.994,4.408,4.408,0,0,0,.786,2.8,2.773,2.773,0,0,0,2.31.99,3.082,3.082,0,0,0,1.644-.42A2.68,2.68,0,0,0,95.832-4.32l3.264.936a5.742,5.742,0,0,1-2.31,2.76A6.4,6.4,0,0,1,93.336.36Zm-4.3-5.928V-7.992h8.592v2.424ZM107.016.36a6.6,6.6,0,0,1-3.432-.876,6.081,6.081,0,0,1-2.3-2.418,7.423,7.423,0,0,1-.822-3.546,7.345,7.345,0,0,1,.84-3.57,6.122,6.122,0,0,1,2.316-2.406,6.6,6.6,0,0,1,3.4-.864,6.629,6.629,0,0,1,3.438.876,6.11,6.11,0,0,1,2.31,2.418,7.38,7.38,0,0,1,.828,3.546,7.362,7.362,0,0,1-.834,3.558A6.11,6.11,0,0,1,110.442-.51,6.641,6.641,0,0,1,107.016.36Zm0-3.048a2.712,2.712,0,0,0,2.346-1.062,4.52,4.52,0,0,0,.774-2.73,4.443,4.443,0,0,0-.786-2.76,2.75,2.75,0,0,0-2.334-1.032,2.981,2.981,0,0,0-1.752.48A2.826,2.826,0,0,0,104.25-8.46a5.463,5.463,0,0,0-.33,1.98,4.437,4.437,0,0,0,.786,2.766A2.731,2.731,0,0,0,107.016-2.688ZM120.216.36a6.505,6.505,0,0,1-3.954-1.11,4.63,4.63,0,0,1-1.83-3.138l3.336-.5a2.339,2.339,0,0,0,.906,1.428,2.93,2.93,0,0,0,1.782.516,2.335,2.335,0,0,0,1.368-.342,1.105,1.105,0,0,0,.48-.954.944.944,0,0,0-.192-.618,2,2,0,0,0-.858-.462q-.666-.228-2.07-.6a11.749,11.749,0,0,1-2.532-.912,3.387,3.387,0,0,1-1.368-1.206,3.25,3.25,0,0,1-.42-1.7,3.708,3.708,0,0,1,.636-2.166,4.077,4.077,0,0,1,1.794-1.416,6.873,6.873,0,0,1,2.73-.5,7.261,7.261,0,0,1,2.7.468,4.7,4.7,0,0,1,1.9,1.332,3.977,3.977,0,0,1,.894,2.04l-3.336.6a1.62,1.62,0,0,0-.624-1.14,2.677,2.677,0,0,0-1.464-.492,2.628,2.628,0,0,0-1.446.24.941.941,0,0,0-.546.864.756.756,0,0,0,.234.564,2.7,2.7,0,0,0,.972.468q.738.24,2.25.624a9.867,9.867,0,0,1,2.37.894,3.365,3.365,0,0,1,1.3,1.224,3.418,3.418,0,0,1,.408,1.722A3.776,3.776,0,0,1,124.2-.78,6.262,6.262,0,0,1,120.216.36ZM133.38-6.9a5.694,5.694,0,0,1-2.256-.45,5.846,5.846,0,0,1-1.86-1.254,5.847,5.847,0,0,1-1.254-1.86,5.724,5.724,0,0,1-.45-2.268,5.651,5.651,0,0,1,.45-2.25,5.8,5.8,0,0,1,1.254-1.848,5.981,5.981,0,0,1,1.86-1.254,5.629,5.629,0,0,1,2.256-.456,5.616,5.616,0,0,1,2.262.456A6,6,0,0,1,137.5-16.83a5.8,5.8,0,0,1,1.254,1.848,5.651,5.651,0,0,1,.45,2.25,5.724,5.724,0,0,1-.45,2.268A5.847,5.847,0,0,1,137.5-8.6a5.865,5.865,0,0,1-1.854,1.254A5.681,5.681,0,0,1,133.38-6.9Zm.012-1.368a4.249,4.249,0,0,0,2.232-.606,4.6,4.6,0,0,0,1.608-1.614,4.3,4.3,0,0,0,.6-2.244,4.282,4.282,0,0,0-.6-2.232,4.553,4.553,0,0,0-1.608-1.608,4.282,4.282,0,0,0-2.232-.6,4.3,4.3,0,0,0-2.244.6,4.553,4.553,0,0,0-1.608,1.608,4.282,4.282,0,0,0-.6,2.232,4.3,4.3,0,0,0,.6,2.244,4.6,4.6,0,0,0,1.608,1.614A4.271,4.271,0,0,0,133.392-8.268Zm-1.968-1.7v-5.58h2.436a1.787,1.787,0,0,1,1.308.522,1.784,1.784,0,0,1,.54,1.29,1.835,1.835,0,0,1-.264.942,1.722,1.722,0,0,1-.768.69l1.056,2.136h-1.056l-.96-1.956H132.36v1.956Zm.936-2.832h1.5a.844.844,0,0,0,.624-.27.916.916,0,0,0,.264-.666.875.875,0,0,0-.27-.672.88.88,0,0,0-.618-.252h-1.5Z" transform="translate(-1262 -148.466)"/>
    <path id="Path_46" data-name="Path 46" d="M578.55,593.017a8.3,8.3,0,0,0-11.273-3.266l-6.177,3.4a8.3,8.3,0,0,0-15.645,3.867v6.808l15.334,8.446,14.5-7.984A8.3,8.3,0,0,0,578.55,593.017Z" transform="translate(-1848.454 -763.255)" fill="url(#linear-gradient)"/>
    <path id="Path_47" data-name="Path 47" d="M545.454,601.928v13.734l12.467-6.867Z" transform="translate(-1848.454 -758.195)" fill="#ff2614"/>
  </g>
</svg>
